<svg xmlns="http://www.w3.org/2000/svg" viewBox="0 0 920 360" role="img" aria-labelledby="title desc">
  <title id="title">EasyFlow Statistics revised logo proposal</title>
  <desc id="desc">A simplified EasyFlow Statistics logo with a sigma mark, chart bars, and a clean upward flow arrow.</desc>
  <defs>
    <linearGradient id="barGradient" x1="0" y1="0" x2="1" y2="0">
      <stop offset="0" stop-color="#0f766e"/>
      <stop offset="1" stop-color="#8bb9e3"/>
    </linearGradient>
    <linearGradient id="flowGradient" x1="0" y1="1" x2="1" y2="0">
      <stop offset="0" stop-color="#0f766e"/>
      <stop offset="1" stop-color="#5fa4dc"/>
    </linearGradient>
    <filter id="softShadow" x="-10%" y="-10%" width="120%" height="120%">
      <feDropShadow dx="0" dy="2" stdDeviation="2" flood-color="#082f49" flood-opacity=".14"/>
    </filter>
  </defs>

  <rect width="920" height="360" fill="#f8fafc"/>

  <g transform="translate(64 72)" filter="url(#softShadow)">
    <path d="M116 18H28L89 104 28 190h91" fill="none" stroke="#082f49" stroke-width="28" stroke-linecap="round" stroke-linejoin="round"/>
    <path d="M121 150c30-52 80-74 143-94" fill="none" stroke="#ffffff" stroke-width="25" stroke-linecap="round"/>
    <path d="M121 150c30-52 80-74 143-94" fill="none" stroke="url(#flowGradient)" stroke-width="15" stroke-linecap="round"/>
    <path d="M245 35l44 9-27 36z" fill="#5fa4dc"/>
    <rect x="121" y="119" width="28" height="72" rx="10" fill="#0f766e"/>
    <rect x="165" y="91" width="28" height="100" rx="10" fill="#2f91b3"/>
    <rect x="209" y="59" width="28" height="132" rx="10" fill="#8bb9e3"/>
  </g>

  <g transform="translate(380 105)">
    <text x="0" y="68" font-family="Segoe UI, Arial, sans-serif" font-size="72" font-weight="800" fill="#0f766e" letter-spacing="-1">EasyFlow</text>
    <text x="0" y="152" font-family="Georgia, 'Times New Roman', serif" font-size="78" font-weight="500" fill="#082f49">Statistics</text>
  </g>

  <g transform="translate(68 292)">
    <rect x="0" y="0" width="145" height="24" rx="7" fill="#082f49"/>
    <rect x="145" y="0" width="145" height="24" fill="#0f766e"/>
    <rect x="290" y="0" width="145" height="24" fill="#8bb9e3"/>
    <rect x="435" y="0" width="145" height="24" fill="#bfe4c5"/>
    <rect x="580" y="0" width="145" height="24" rx="7" fill="#f2b35c"/>
  </g>
</svg>
